<?xml version="1.0" standalone="no"?>
<!DOCTYPE svg PUBLIC "-//W3C//DTD SVG 20010904//EN"
 "http://www.w3.org/TR/2001/REC-SVG-20010904/DTD/svg10.dtd">
<svg version="1.0" xmlns="http://www.w3.org/2000/svg"
 width="512.000000pt" height="512.000000pt" viewBox="0 0 512.000000 512.000000"
 preserveAspectRatio="xMidYMid meet">

<g transform="translate(0.000000,512.000000) scale(0.100000,-0.100000)"
fill="#5285c5" stroke="none">
<path d="M1210 4994 c-228 -26 -388 -106 -564 -280 -275 -274 -406 -572 -406
-926 0 -243 44 -450 175 -823 197 -562 193 -544 205 -885 5 -146 12 -285 14
-310 3 -25 10 -99 16 -165 37 -409 133 -816 249 -1060 66 -138 113 -209 191
-286 111 -110 226 -151 363 -129 176 27 304 139 406 354 64 135 93 222 200
603 119 426 183 581 281 682 120 124 323 126 429 5 81 -93 145 -263 226 -609
119 -510 182 -678 314 -834 94 -112 205 -173 353 -192 156 -21 277 20 394 136
270 268 421 868 454 1810 11 310 18 350 131 675 189 541 228 700 236 959 8
245 -23 409 -114 586 -96 188 -283 403 -458 526 -178 125 -407 179 -629 150
-109 -15 -309 -66 -470 -121 -546 -184 -743 -186 -1281 -10 -235 77 -301 96
-415 119 -99 20 -239 32 -300 25z m241 -200 c97 -18 233 -56 403 -114 308
-104 493 -142 691 -142 205 0 366 34 742 156 299 97 449 124 596 106 202 -24
375 -125 534 -309 188 -219 266 -401 280 -651 13 -254 -28 -437 -242 -1060
-108 -316 -113 -345 -130 -710 -15 -343 -27 -494 -51 -670 -72 -530 -205 -894
-375 -1024 -57 -43 -97 -56 -175 -56 -158 0 -277 86 -360 260 -65 135 -102
257 -187 615 -91 380 -154 550 -249 668 -79 99 -145 145 -250 173 -200 53
-409 -37 -540 -233 -104 -155 -141 -256 -278 -742 -93 -332 -133 -447 -195
-556 -72 -130 -142 -184 -249 -192 -83 -7 -124 8 -190 68 -173 158 -308 556
-380 1119 -22 176 -36 360 -46 635 -10 287 -23 351 -125 640 -205 578 -255
775 -255 1005 0 248 70 453 226 660 151 200 302 313 474 355 76 18 231 18 331
-1z"/>
</g>
</svg>
